<?xml version="1.0" encoding="UTF-8"?>
<svg width="386px" height="160px" viewBox="0 0 386 160" version="1.1" xmlns="http://www.w3.org/2000/svg" xmlns:xlink="http://www.w3.org/1999/xlink">
    <!-- Generator: Sketch 39.1 (31720) - http://www.bohemiancoding.com/sketch -->
    <title>logo-</title>
    <desc>Created with Sketch.</desc>
    <defs></defs>
    <g id="Page-1" stroke="none" stroke-width="1" fill="none" fill-rule="evenodd">
        <g id="logo-" fill="#1D1D1B">
            <g id="logo-index" transform="translate(43.000000, 40.000000)">
                <g id="Layer_1">
                    <g id="Group">
                        <path d="M0.0315789474,9.71210526 C0.0315789474,7.00105263 0.792631579,4.89315789 2.28631579,3.40894737 C3.71210526,2.01315789 5.70473684,1.25526316 8.19789474,1.25526316 C10.6468421,1.25526316 12.57,2.01315789 14.1157895,3.40894737 C15.6836842,4.86631579 16.3957895,7.00105263 16.3957895,9.71210526 L16.3957895,71.3984211 C16.3957895,74.0494737 15.6836842,76.1005263 14.2089474,77.5073684 C12.6931579,79.0342105 10.7463158,79.7873684 8.19947368,79.7873684 C5.79789474,79.7873684 3.85263158,79.0326316 2.28789474,77.6021053 C0.794210526,76.2426316 0.0331578947,74.0478947 0.0331578947,71.3968421 L0.0331578947,9.71210526 L0.0315789474,9.71210526 Z" id="Shape"></path>
                        <path d="M28.4621053,9.71210526 C28.4621053,7.00105263 29.2168421,4.89315789 30.7136842,3.40894737 C32.1394737,2.01315789 34.1131579,1.25526316 36.6568421,1.25526316 C37.7178947,1.25526316 38.8894737,1.53631579 40.3405263,2.18684211 C41.7884211,2.99368421 42.7547368,3.77842105 43.4715789,4.86473684 L78.2431579,50.7142105 L78.5052632,9.71210526 C78.5052632,7.00105263 79.2378947,4.89315789 80.7805263,3.40894737 C82.2126316,2.01315789 84.1831579,1.25526316 86.6731579,1.25526316 C89.0289474,1.25526316 91.0721053,2.01315789 92.6178947,3.40894737 C94.0831579,4.86631579 94.8694737,7.00105263 94.8694737,9.71210526 L94.8694737,71.3984211 C94.8694737,74.0494737 94.0831579,76.1005263 92.6605263,77.5073684 C91.1336842,79.0342105 89.1442105,79.7873684 86.6731579,79.7873684 C85.5836842,79.7873684 84.3710526,79.4652632 83.1142105,78.6694737 C81.66,78.1026316 80.5721053,77.1789474 79.7668421,76.2426316 L45.0426316,30.8447368 L44.8278947,71.3984211 C44.8278947,74.0494737 44.0952632,76.1005263 42.6615789,77.5073684 C41.1126316,79.0342105 39.1484211,79.7873684 36.6552632,79.7873684 C34.2552632,79.7873684 32.2531579,79.0326316 30.7121053,77.6021053 C29.2152632,76.2426316 28.4605263,74.0478947 28.4605263,71.3968421 L28.4605263,9.71210526 L28.4621053,9.71210526 Z" id="Shape"></path>
                        <path d="M123.374211,64.2047368 L134.513684,64.2047368 C141.306316,64.2047368 146.434737,62.0131579 149.902105,57.6805263 C153.273158,53.3289474 155.036842,47.6352632 155.036842,40.8331579 C155.036842,33.5542105 153.273158,27.6694737 149.736316,23.3778947 C146.13,18.9884211 140.619474,16.8442105 133.444737,16.8442105 L123.377368,16.8442105 L123.377368,64.2047368 L123.374211,64.2047368 Z M107.003684,10.2094737 C107.003684,7.70684211 107.745789,5.63526316 109.313684,4.15421053 C110.859474,2.61315789 112.899474,1.86947368 115.394211,1.86947368 L133.657895,1.86947368 C145.795263,1.86947368 155.317895,5.46789474 162.061579,12.4973684 C168.738947,19.6942105 172.138421,29.3510526 172.138421,41.5768421 C172.138421,52.9547368 168.740526,62.1078947 161.97,68.91 C155.155263,75.8242105 146.13,79.1463158 134.707895,79.1463158 L115.604211,79.1463158 C113.466316,79.1463158 111.448421,78.4784211 109.697368,77.1789474 C107.865789,75.8621053 107.003684,73.86 107.003684,70.9689474 L107.003684,10.2094737 L107.003684,10.2094737 Z" id="Shape"></path>
                        <path d="M180.522632,11.3352632 C180.522632,8.49157895 181.283684,6.24947368 182.703158,4.47631579 C184.111579,2.75526316 186.320526,1.86947368 189.071053,1.86947368 L216.263684,1.86947368 C218.763158,1.86947368 220.613684,2.61473684 222.036316,4.06263158 C223.346842,5.60210526 224.011579,7.33263158 224.011579,9.33631579 C224.011579,11.3368421 223.346842,13.0657895 221.924211,14.6068421 C220.520526,16.0547368 218.651053,16.8457895 216.263684,16.8457895 L196.891579,16.8457895 L196.891579,32.6589474 L214.935789,32.6589474 C217.432105,32.6589474 219.456316,33.4689474 220.828421,34.8157895 C222.254211,36.2968421 222.923684,38.1221053 222.923684,40.2205263 C222.923684,42.2305263 222.254211,44.0052632 220.828421,45.3963158 C219.456316,46.9357895 217.432105,47.6921053 214.935789,47.6921053 L196.891579,47.6921053 L196.891579,64.2047368 L217.215789,64.2047368 C219.811579,64.2047368 221.613158,64.9515789 223.012105,66.3584211 C224.346316,67.9026316 224.981053,69.6078947 224.981053,71.6194737 C224.981053,73.6263158 224.346316,75.3536842 222.923684,76.9042105 C221.496316,78.4436842 219.614211,79.1463158 217.215789,79.1463158 L188.905263,79.1463158 C186.408947,79.1463158 184.465263,78.4436842 182.916316,76.9042105 C181.283684,75.4831579 180.521053,73.5410526 180.521053,70.9689474 L180.521053,11.3352632 L180.522632,11.3352632 Z" id="Shape"></path>
                        <path d="M255.888947,37.8 L238.17,13.9057895 C236.985789,12.4247368 236.387368,10.7889474 236.387368,9.14368421 C236.387368,6.90473684 237.168947,4.89157895 238.83,3.40736842 C240.356842,2.01157895 242.330526,1.25368421 244.725789,1.25368421 C246.053684,1.25368421 247.359474,1.53473684 248.660526,2.29578947 C249.855789,3.08684211 250.948421,4.05947368 251.804211,5.18684211 L265.506316,24.3631579 L279.022105,5.18684211 C279.803684,4.06105263 280.904211,3.08842105 282.203684,2.29578947 C283.394211,1.53473684 284.725263,1.25368421 286.122632,1.25368421 C288.429474,1.25368421 290.398421,2.01157895 292.037368,3.40736842 C293.657368,4.86473684 294.457895,6.77210526 294.457895,9.14368421 C294.457895,10.7889474 293.914737,12.4231579 292.754211,13.9057895 L274.964211,37.8 L296.625789,66.7278947 C297.074211,67.3357895 297.506842,68.1757895 297.934737,69.1942105 C298.233158,70.0815789 298.452632,71.2105263 298.452632,72.2289474 C298.452632,74.4647368 297.715263,76.3278947 296.193158,77.7489474 C294.672632,79.1478947 292.754211,79.7889474 290.188421,79.7889474 C287.426842,79.7889474 285.148421,78.6268421 283.392632,76.2442105 L265.506316,51.5178947 L247.430526,76.2442105 C245.7,78.6268421 243.443684,79.7889474 240.66,79.7889474 C238.315263,79.7889474 236.272105,79.0342105 234.776842,77.6036842 C233.16,76.2442105 232.373684,74.4647368 232.373684,72.2289474 C232.373684,71.1126316 232.59,70.0831579 232.899474,69.1942105 C233.251579,68.3131579 233.7,67.4257895 234.228947,66.7278947 L255.888947,37.8 L255.888947,37.8 Z" id="Shape"></path>
                    </g>
                </g>
            </g>
        </g>
    </g>
</svg>